<?xml version="1.0" encoding="UTF-8"?>
<svg id="Layer_1" data-name="Layer 1" xmlns="http://www.w3.org/2000/svg" viewBox="0 0 598.36 116">
  <defs>
    <style>
      .cls-1 {
        fill: #ff6012;
      }
    </style>
  </defs>
  <path id="GlobalFoundries" class="cls-1" d="m4.14,82.76h33.1v33.1c-18.26,0-33.1-14.84-33.1-33.1Zm82.76-49.65h33.1V0h-33.1v33.1Zm0,41.38h33.1v-33.1h-33.1v33.1ZM37.24,0C16.65,0,0,16.65,0,37.24s16.65,37.24,37.24,37.24V0Zm41.38,0c-18.26,0-33.1,14.84-33.1,33.1v82.76c18.26,0,33.1-14.84,33.1-33.1V0Zm88.76,58.55c-4.55,0-8.48-.88-11.84-2.59s-6-4.14-7.86-7.29c-1.86-3.1-2.79-6.78-2.79-11.02s.98-8.12,2.95-11.38c1.97-3.26,4.71-5.79,8.17-7.6,3.52-1.81,7.55-2.74,12.16-2.74,2.48,0,5.02.26,7.5.83s4.71,1.34,6.72,2.43l-1.34,6.83c-2.02-.98-4.14-1.71-6.36-2.22-2.28-.52-4.5-.78-6.78-.78-2.95,0-5.48.62-7.71,1.81-2.17,1.19-3.93,2.84-5.12,5.02-1.24,2.12-1.86,4.66-1.86,7.5,0,4.4,1.29,7.86,3.93,10.4s6.21,3.83,10.76,3.83c1.4,0,2.69-.1,3.93-.26,1.24-.21,2.48-.47,3.72-.83v-9.16h-8.22v-6.31h15.83v20.48c-2.38,1.03-4.86,1.76-7.55,2.28-2.69.52-5.43.78-8.22.78Zm30.47-.62V16.55h-7.5v41.38h7.5Zm27.93-1.09c2.28-1.29,4.03-3.05,5.33-5.28,1.29-2.22,1.97-4.71,1.97-7.5s-.62-5.38-1.91-7.55c-1.29-2.22-3.05-3.98-5.33-5.28s-4.81-1.91-7.66-1.91-5.38.62-7.6,1.91c-2.28,1.29-4.03,3.05-5.33,5.28s-1.97,4.76-1.97,7.55.62,5.33,1.91,7.55c1.29,2.22,3.05,3.98,5.33,5.28s4.81,1.91,7.66,1.91,5.38-.67,7.6-1.97Zm-12.88-7.03c-1.4-1.5-2.07-3.41-2.07-5.74s.67-4.29,2.07-5.79c1.4-1.5,3.16-2.22,5.28-2.22s3.88.72,5.28,2.22,2.07,3.41,2.07,5.79-.67,4.24-2.07,5.74-3.16,2.22-5.28,2.22c-2.17,0-3.93-.72-5.28-2.22Zm48.78,7.03c1.97-1.29,3.57-3.05,4.71-5.33,1.14-2.22,1.76-4.76,1.76-7.55s-.57-5.38-1.66-7.6c-1.09-2.17-2.59-3.93-4.5-5.17s-4.14-1.86-6.57-1.86c-4.09,0-7.14,1.6-9.16,4.76v-17.53h-7.5v41.38h7.19l.1-4.19c.93,1.66,2.12,2.9,3.72,3.78,1.55.88,3.31,1.29,5.28,1.29,2.38,0,4.6-.67,6.62-1.97Zm-13.81-7.03c-1.4-1.5-2.07-3.41-2.07-5.74s.67-4.29,2.07-5.79c1.4-1.5,3.16-2.22,5.33-2.22s3.88.72,5.28,2.22,2.07,3.41,2.07,5.79-.67,4.24-2.07,5.74-3.16,2.22-5.28,2.22c-2.17,0-3.98-.72-5.33-2.22Zm46.65,3.88l.1,4.24h7.19v-27.72h-7.19l-.1,4.24c-.93-1.66-2.17-2.9-3.72-3.78-1.6-.88-3.31-1.34-5.28-1.34-2.48,0-4.71.67-6.67,1.97-1.97,1.29-3.57,3.05-4.71,5.33-1.14,2.22-1.76,4.76-1.76,7.55s.57,5.38,1.66,7.55c1.09,2.22,2.59,3.93,4.5,5.22,1.91,1.24,4.09,1.86,6.57,1.86,4.34,0,7.5-1.71,9.41-5.12Zm-12.47-3.88c-1.4-1.5-2.07-3.41-2.07-5.74s.67-4.29,2.07-5.79c1.4-1.5,3.16-2.22,5.28-2.22s3.88.72,5.28,2.22,2.07,3.41,2.07,5.79-.67,4.24-2.07,5.74-3.16,2.22-5.28,2.22c-2.12,0-3.88-.72-5.28-2.22Zm34.5,8.12V16.55h-7.5v41.38h7.5Zm16.14,0v-16.5h15.93v-6.67h-15.93v-11.53h18.47v-6.67h-26.59v41.38h8.12Zm42.21-1.09c2.28-1.29,4.03-3.05,5.33-5.28,1.29-2.22,1.97-4.71,1.97-7.5s-.62-5.38-1.91-7.55c-1.29-2.22-3.05-3.98-5.33-5.28-2.28-1.29-4.81-1.91-7.66-1.91s-5.38.62-7.6,1.91c-2.28,1.29-4.03,3.05-5.33,5.28s-1.97,4.76-1.97,7.55.62,5.33,1.91,7.55c1.29,2.22,3.05,3.98,5.33,5.28,2.28,1.29,4.81,1.91,7.66,1.91s5.38-.67,7.6-1.97Zm-12.88-7.03c-1.4-1.5-2.07-3.41-2.07-5.74s.67-4.29,2.07-5.79c1.4-1.5,3.16-2.22,5.28-2.22s3.88.72,5.28,2.22,2.07,3.41,2.07,5.79-.67,4.24-2.07,5.74-3.16,2.22-5.28,2.22c-2.17,0-3.93-.72-5.28-2.22Zm40.5,7.71c1.5-.83,2.64-2.02,3.36-3.57l.1,3.98h7.34v-27.72h-7.55v14.9c0,2.17-.47,3.88-1.45,5.12-.98,1.24-2.38,1.86-4.19,1.86s-3-.47-3.78-1.45-1.19-2.59-1.19-4.81v-15.62h-7.55v17.33c0,3.62.83,6.41,2.43,8.38,1.66,1.97,3.98,2.9,7.09,2.9,2.07,0,3.88-.41,5.38-1.29Zm25.55.41v-14.9c0-2.22.52-3.93,1.5-5.12,1.03-1.24,2.43-1.81,4.24-1.81,3.36,0,5.02,2.17,5.02,6.47v15.36h7.5v-16.81c0-3.78-.83-6.67-2.53-8.69-1.71-2.02-4.14-3.05-7.34-3.05-1.97,0-3.67.41-5.22,1.29-1.5.88-2.64,2.07-3.36,3.62l-.1-4.03h-7.24v27.67h7.55Zm41.95-.41c1.6-.88,2.9-2.12,3.88-3.78l.1,4.19h7.19V16.55h-7.55v17.48c-.93-1.5-2.17-2.69-3.72-3.47-1.5-.78-3.21-1.19-5.02-1.19-2.48,0-4.71.67-6.67,1.97-1.97,1.29-3.57,3.05-4.71,5.33-1.14,2.22-1.76,4.76-1.76,7.55s.57,5.38,1.66,7.55c1.09,2.22,2.59,3.93,4.5,5.22,1.91,1.24,4.09,1.86,6.57,1.86,2.07-.05,3.93-.52,5.53-1.34Zm-8.59-7.71c-1.4-1.5-2.07-3.41-2.07-5.74s.67-4.29,2.07-5.79c1.4-1.5,3.16-2.22,5.28-2.22s3.88.72,5.28,2.22,2.07,3.41,2.07,5.79-.67,4.24-2.07,5.74-3.16,2.22-5.28,2.22c-2.17,0-3.93-.72-5.28-2.22Zm34.45,8.12v-12.62c0-2.74.57-4.86,1.71-6.36,1.14-1.45,2.74-2.22,4.81-2.22.57,0,1.14.05,1.81.21s1.24.31,1.71.47l.67-7.14c-.36-.21-.83-.31-1.45-.41s-1.19-.16-1.76-.16c-1.76,0-3.31.52-4.66,1.55s-2.33,2.53-2.95,4.45l-.05-5.48h-7.24v27.72h7.4Zm22.14-34.6c.83-.83,1.29-1.91,1.29-3.16s-.41-2.33-1.29-3.16c-.83-.83-1.91-1.24-3.21-1.24s-2.33.41-3.21,1.24c-.83.83-1.29,1.86-1.29,3.16s.41,2.28,1.29,3.16c.83.83,1.91,1.29,3.21,1.29,1.29-.05,2.33-.47,3.21-1.29Zm.57,34.6v-27.72h-7.5v27.72h7.5Zm27.47.26c1.86-.41,3.52-.98,4.97-1.71l-.78-5.64c-1.34.67-2.79,1.14-4.4,1.5-1.6.36-3.16.52-4.76.52-5.64,0-8.84-2.33-9.57-6.93h19.76c.1-.98.16-1.91.16-2.84,0-2.79-.52-5.22-1.6-7.29s-2.59-3.67-4.55-4.81-4.29-1.71-6.98-1.71-5.22.62-7.34,1.86c-2.12,1.24-3.83,3-5.02,5.22-1.19,2.22-1.81,4.76-1.81,7.66s.62,5.64,1.91,7.86c1.29,2.22,3.16,3.93,5.53,5.07,2.43,1.19,5.28,1.76,8.64,1.76,2.02.1,3.98-.1,5.84-.52Zm-3.78-21.93c1.09.93,1.76,2.28,1.97,4.03.05.31.1.67.1,1.09h-12.83c.31-2.12,1.03-3.72,2.17-4.86,1.14-1.14,2.64-1.71,4.4-1.71,1.71.05,3.1.52,4.19,1.45Zm32.02,20.28c2.12-1.5,3.21-3.62,3.21-6.26,0-2.33-.72-4.19-2.22-5.53-1.45-1.4-3.93-2.53-7.4-3.52-1.97-.57-3.31-1.14-3.98-1.66-.67-.52-1.03-1.14-1.03-1.97,0-1.76,1.4-2.64,4.24-2.64,1.29,0,2.69.21,4.09.57,1.4.36,2.74.93,4.03,1.66l.93-5.59c-1.14-.62-2.53-1.14-4.24-1.55-1.71-.41-3.41-.62-5.12-.62-3.47,0-6.21.78-8.22,2.28s-3,3.62-3,6.31c0,2.28.67,4.03,2.07,5.38s3.72,2.48,7.03,3.41c1.45.41,2.53.78,3.31,1.14s1.29.72,1.55,1.09.41.88.41,1.45c0,1.86-1.66,2.84-4.91,2.84-1.5,0-3.05-.26-4.71-.72s-3.1-1.19-4.34-2.02l-.93,5.74c1.14.78,2.64,1.45,4.55,1.91,1.91.47,3.83.72,5.79.72,3.83-.16,6.78-.93,8.9-2.43Z"/>
  <path class="cls-1" d="m593.02,13.27c0,4.78-3.78,8.57-8.64,8.57s-8.71-3.78-8.71-8.57,3.86-8.42,8.71-8.42,8.64,3.71,8.64,8.42Zm-15.13,0c0,3.78,2.78,6.71,6.57,6.71s6.43-3,6.43-6.71-2.71-6.78-6.5-6.78-6.5,3.07-6.5,6.78Zm5.14,4.43h-1.93v-8.5c.79-.14,1.86-.29,3.21-.29,1.57,0,2.28.29,2.93.64.43.36.86,1,.86,1.86,0,.93-.71,1.64-1.71,1.93v.07c.86.29,1.29.93,1.57,2.07.29,1.29.43,1.78.64,2.14h-2.14c-.29-.29-.43-1.07-.64-2.07-.14-.93-.64-1.36-1.71-1.36h-.93v3.5h-.14Zm.07-4.78h.93c1.07,0,1.93-.36,1.93-1.21,0-.79-.57-1.29-1.78-1.29-.5,0-.86.07-1.07.07v2.43Z"/>
</svg>